<svg xmlns="http://www.w3.org/2000/svg" width="16" height="16" viewBox="0 0 4.233 4.233" id="online-study">
  <g transform="translate(73.405 -1.965)">
    <g>
      <g>
        <g>
          <g>
            <g>
              <g>
                <g>
                  <g transform="translate(0 .002)">
                    <g>
                      <g>
                        <g transform="translate(0 .004)">
                          <g>
                            <g>
                              <g>
                                <g>
                                  <g>
                                    <g>
                                      <g transform="translate(0 -.06)">
                                        <g>
                                          <g>
                                            <g transform="translate(0 -.525)">
                                              <g transform="translate(0 .58)">
                                                <g>
                                                  <g>
                                                    <path fill="none" stroke="#000" stroke-linecap="round" stroke-linejoin="round" stroke-width=".265" d="M-72.57969 3.9472218c-.193101 0-.335699.1880256-.297139.377238l.229443 1.1265462c.03856.1892123.155715.3482991.348816.3482991h1.009241 1.009243c.193101 0 .310256-.159087.348816-.3482991l.229444-1.1265462c.03856-.1892124-.104039-.377238-.29714-.377238h-1.290363zM-72.365801 5.7993051h-.511028M-70.287268 5.7993051h.585442M-70.795299 2.8523386a.49403101.49403101 0 01-.494031.4940311.49403101.49403101 0 01-.494031-.4940311.49403101.49403101 0 01.494031-.494031.49403101.49403101 0 01.494031.494031z" paint-order="markers fill stroke"></path>
                                                    <path fill="none" stroke="#000" stroke-linecap="round" stroke-linejoin="round" stroke-width=".265" d="M-71.28933 4.6478321a.13229156.13229156 0 01.132292.132292.13229156.13229156 0 01-.132292.132292.13229156.13229156 0 01-.132292-.132292.13229156.13229156 0 01.132292-.132292zM-72.206005 3.8834886a.93017578.63251954 0 01.940551-.5249369.93017578.63251954 0 01.899695.5570678" paint-order="markers fill stroke"></path>
                                                  </g>
                                                </g>
                                              </g>
                                            </g>
                                          </g>
                                        </g>
                                      </g>
                                    </g>
                                  </g>
                                </g>
                              </g>
                            </g>
                          </g>
                        </g>
                      </g>
                    </g>
                  </g>
                </g>
              </g>
            </g>
          </g>
        </g>
      </g>
    </g>
  </g>
</svg>
